<?xml version="1.0" encoding="UTF-8"?>


<svg xmlns="http://www.w3.org/2000/svg" xml:space="preserve" width="56.5675mm" height="22.1662mm" version="1.1" style="shape-rendering:geometricPrecision; text-rendering:geometricPrecision; image-rendering:optimizeQuality; fill-rule:evenodd; clip-rule:evenodd" viewBox="0 0 6373 2497" xmlns:xlink="http://www.w3.org/1999/xlink">
 <defs>
  
  <linearGradient id="id0" gradientUnits="userSpaceOnUse" x1="1851.74" y1="2324.98" x2="5976.16" y2="2324.98">
   <stop offset="0" style="stop-opacity:1; stop-color:#68B237"></stop>
   <stop offset="1" style="stop-opacity:1; stop-color:#488C3C"></stop>
  </linearGradient>
  <linearGradient id="id1" gradientUnits="userSpaceOnUse" xlink:href="#id0" x1="269.994" y1="1356.67" x2="2142.01" y2="1356.67">
  </linearGradient>
  <linearGradient id="id2" gradientUnits="userSpaceOnUse" xlink:href="#id0" x1="168.846" y1="1033.64" x2="2243.16" y2="1033.64">
  </linearGradient>
  <linearGradient id="id3" gradientUnits="userSpaceOnUse" xlink:href="#id0" x1="5855.24" y1="1338.68" x2="2908.02" y2="1338.68">
  </linearGradient>
 </defs>
 <g id="Layer_x0020_1">
  <metadata id="CorelCorpID_0Corel-Layer"></metadata>
  <g id="CDR.cdr">
   <path fill="#FFFFFF" d="M725 819l124 212 -468 820 272 3 454 -776 -264 -454 126 -212 388 667 -568 981 -789 4 725 -1245zm478 -819l-124 211 951 1634 -227 3 -333 -572 -461 786 250 5 212 -362 206 355 735 5 -1209 -2065z"></path>
   <path fill="url(#id1)" d="M1506 298c455,129 788,545 788,1038 0,89 -10,175 -31,257l-127 -219c0,-12 0,-25 0,-38 0,-357 -204,-666 -503,-820l-127 -218zm389 1874c-187,153 -427,244 -689,244 -262,0 -502,-91 -689,-244l293 0c120,56 254,88 396,88 142,0 276,-32 396,-88l293 0zm-1747 -582c-20,-81 -30,-166 -30,-254 0,-494 334,-911 791,-1039l-130 219c-299,153 -503,463 -503,820 0,12 0,23 0,34l-128 220z"></path>
   <path fill="url(#id2)" d="M2118 2153l4194 0 0 344 -4796 0c175,-47 339,-130 482,-247l120 -97zm230 70c22,0 38,5 48,16 10,10 15,24 15,44l0 22c0,19 -5,34 -15,44 -10,10 -26,15 -48,15l-121 0 0 56c0,4 -2,7 -7,7l-31 0c-5,0 -7,-3 -7,-7l0 -188c0,-6 3,-9 9,-9l157 0zm-121 103l112 0c10,0 17,-2 21,-6 4,-4 6,-11 6,-20l0 -11c0,-8 -2,-15 -6,-19 -4,-4 -11,-7 -21,-7l-108 0c-3,0 -4,2 -4,4l0 59zm641 -103c22,0 38,5 48,16 10,10 15,24 15,44l0 17c0,16 -4,30 -10,39 -7,10 -18,16 -34,19l50 61c1,1 1,3 1,5 0,2 -2,3 -5,3l-37 0c-3,0 -5,-1 -6,-1 -1,-1 -2,-2 -3,-3l-46 -61 -94 0 0 58c0,4 -2,7 -7,7l-31 0c-5,0 -7,-3 -7,-7l0 -188c0,-6 3,-9 9,-9l157 0zm-121 104l112 0c10,0 17,-2 21,-6 4,-5 6,-11 6,-20l0 -12c0,-9 -2,-15 -6,-19 -4,-5 -11,-7 -21,-7l-108 0c-3,0 -4,1 -4,4l0 60zm647 -104c15,0 27,2 38,5 10,2 19,7 25,13 7,6 11,14 14,24 3,9 5,21 5,35l0 50c0,14 -2,26 -5,35 -3,10 -7,18 -14,24 -6,6 -15,11 -25,13 -11,3 -23,5 -38,5l-91 0c-14,0 -27,-2 -37,-5 -11,-2 -19,-7 -26,-13 -6,-6 -11,-14 -14,-24 -3,-9 -4,-21 -4,-35l0 -50c0,-14 1,-26 4,-35 3,-10 8,-18 14,-24 7,-6 15,-11 26,-13 10,-3 23,-5 37,-5l91 0zm-128 124c0,7 1,14 2,19 1,5 4,9 6,12 3,3 7,5 12,6 5,2 12,2 19,2l87 0c8,0 14,0 19,-2 5,-1 9,-3 12,-6 3,-3 5,-7 6,-12 1,-5 2,-12 2,-19l0 -44c0,-7 -1,-14 -2,-19 -1,-5 -3,-9 -6,-12 -3,-3 -7,-5 -12,-6 -5,-2 -11,-2 -19,-2l-87 0c-7,0 -14,0 -19,2 -5,1 -9,3 -12,6 -2,3 -5,7 -6,12 -1,5 -2,12 -2,19l0 44zm654 -124c16,0 29,2 41,5 11,3 20,8 27,15 8,7 13,15 16,26 4,10 5,22 5,36l0 40c0,14 -1,26 -5,36 -3,11 -8,19 -16,26 -7,7 -16,12 -27,15 -12,3 -25,5 -41,5l-137 0c-6,0 -9,-3 -9,-9l0 -186c0,-6 3,-9 9,-9l137 0zm-101 159c0,3 1,4 4,4l96 0c8,0 16,-1 21,-2 6,-2 11,-4 15,-8 3,-3 6,-8 7,-14 2,-5 3,-13 3,-21l0 -32c0,-8 -1,-16 -3,-21 -1,-6 -4,-11 -7,-14 -4,-4 -9,-6 -15,-8 -5,-1 -13,-2 -21,-2l-96 0c-3,0 -4,1 -4,4l0 114zm527 -159c4,0 7,3 7,7l0 116c0,7 0,14 2,19 1,5 3,9 6,12 3,3 7,5 12,6 5,2 11,2 19,2l81 0c7,0 13,0 18,-2 5,-1 9,-3 12,-6 3,-3 5,-7 6,-12 2,-5 2,-12 2,-19l0 -116c0,-4 2,-7 7,-7l31 0c5,0 7,3 7,7l0 120c0,14 -2,26 -5,35 -2,10 -7,18 -14,24 -6,6 -15,11 -25,13 -11,3 -23,5 -38,5l-84 0c-15,0 -28,-2 -38,-5 -10,-2 -19,-7 -25,-13 -7,-6 -12,-14 -15,-24 -3,-9 -4,-21 -4,-35l0 -120c0,-4 2,-7 7,-7l31 0zm722 0c4,0 6,3 6,7l0 28c0,5 -2,7 -6,7l-130 0c-8,0 -14,1 -19,2 -5,1 -9,3 -12,6 -3,3 -5,7 -6,12 -1,5 -2,12 -2,19l0 42c0,7 1,14 2,19 1,5 3,9 6,12 3,3 7,5 12,6 5,2 11,2 19,2l130 0c4,0 6,2 6,7l0 28c0,4 -2,7 -6,7l-132 0c-15,0 -27,-2 -38,-5 -10,-2 -18,-7 -25,-13 -6,-6 -11,-14 -14,-24 -3,-9 -5,-21 -5,-35l0 -50c0,-14 2,-26 5,-35 3,-10 8,-18 14,-24 7,-6 15,-11 25,-13 11,-3 23,-5 38,-5l132 0zm523 0c4,0 6,3 6,7l0 28c0,5 -2,7 -6,7l-92 0 0 155c0,4 -2,7 -7,7l-31 0c-5,0 -7,-3 -7,-7l0 -155 -92 0c-4,0 -6,-2 -6,-7l0 -28c0,-4 2,-7 6,-7l229 0zm498 0c4,0 7,3 7,7l0 27c0,5 -3,7 -7,7l-146 0c-6,0 -10,1 -12,4 -3,3 -4,7 -4,12l0 10c0,11 5,16 15,16l110 0c17,0 30,4 38,13 9,9 13,21 13,37l0 23c0,14 -4,26 -12,34 -9,9 -22,14 -40,14l-162 0c-4,0 -6,-3 -6,-7l0 -27c0,-5 2,-7 6,-7l154 0c6,0 10,-1 12,-4 2,-3 3,-7 3,-12l0 -12c0,-11 -5,-16 -15,-16l-109 0c-17,0 -30,-4 -39,-13 -8,-9 -13,-21 -13,-37l0 -21c0,-14 5,-26 13,-35 8,-8 21,-13 39,-13l155 0z"></path>
   <path fill="url(#id3)" d="M2604 1406c-55,0 -104,-23 -148,-67 -44,-45 -66,-100 -66,-165 0,-45 10,-91 29,-139 19,-47 48,-94 87,-139 39,-46 86,-87 140,-123 54,-36 120,-65 198,-88 77,-22 160,-33 249,-33 53,0 104,6 154,18 50,12 97,31 143,58 45,27 85,59 119,98 34,38 61,87 82,145 20,58 30,123 30,193 0,98 -15,188 -44,268 -30,81 -70,147 -119,198 -49,51 -105,90 -168,118 -62,28 -128,41 -196,41 -55,0 -100,-12 -134,-36 -34,-24 -51,-47 -51,-71 0,-7 2,-14 4,-19 3,-5 7,-8 12,-8 1,0 6,5 15,13 10,9 25,17 47,25 21,8 46,12 76,12 52,0 102,-15 150,-43 49,-29 91,-68 128,-118 37,-50 67,-111 89,-183 22,-73 34,-150 34,-232 0,-141 -32,-246 -96,-314 -64,-68 -153,-102 -265,-102 -73,0 -140,11 -202,32 -62,21 -114,48 -156,82 -42,33 -78,70 -109,112 -30,41 -52,82 -66,123 -14,41 -21,79 -21,115 0,36 9,64 25,85 16,22 39,32 68,32 39,0 74,-16 105,-50 31,-33 47,-64 47,-92 0,-10 6,-11 18,-3 19,9 28,25 28,46 0,46 -23,92 -69,139 -46,48 -102,72 -167,72zm725 -560c-33,0 -65,17 -96,51 -32,34 -61,79 -88,133 -26,55 -53,116 -80,182 -27,67 -55,134 -84,200 -29,66 -59,127 -90,182 -30,55 -65,100 -104,134 -39,34 -80,52 -122,52 -37,0 -69,-15 -96,-44 -27,-29 -41,-58 -41,-86 0,-12 2,-21 5,-28 3,-8 7,-12 12,-12 1,0 4,3 10,7 6,5 12,7 19,7 19,0 36,-2 52,-7 16,-4 36,-16 59,-34 22,-17 46,-42 69,-73 24,-31 52,-75 83,-131 32,-57 66,-124 102,-202 59,-129 117,-222 175,-280 58,-58 117,-87 178,-87 21,0 35,8 41,23 4,8 2,13 -4,13zm774 416c0,42 -19,81 -58,115 -39,35 -82,61 -131,78 -48,17 -93,26 -135,28 -4,17 -5,34 -5,50 0,27 5,49 17,67 11,17 28,26 52,26 17,0 36,-3 56,-8 21,-5 45,-15 74,-28 28,-14 58,-36 90,-66 32,-31 61,-68 89,-111 2,-4 4,-4 7,-2l28 33c2,3 2,5 0,8 -29,47 -59,88 -90,122 -31,33 -58,59 -83,76 -24,17 -50,30 -78,40 -28,10 -50,16 -66,18 -16,1 -35,2 -57,2 -56,0 -98,-18 -125,-54 -28,-36 -42,-82 -42,-137 0,-52 15,-105 45,-160 30,-54 71,-100 123,-137 52,-36 105,-55 159,-55 40,0 72,8 96,24 23,15 34,39 34,71zm-119 -41c-30,0 -65,21 -102,63 -38,43 -68,92 -89,147 88,-22 150,-65 188,-128 23,-37 28,-63 16,-78 -3,-3 -7,-4 -13,-4zm588 41c0,42 -19,81 -58,115 -39,35 -82,61 -131,78 -48,17 -93,26 -135,28 -3,17 -5,34 -5,50 0,27 5,49 17,67 11,17 29,26 52,26 17,0 36,-3 56,-8 21,-5 45,-15 74,-28 28,-14 58,-36 90,-66 32,-31 61,-68 89,-111 2,-4 4,-4 7,-2l28 33c2,3 2,5 0,8 -29,47 -59,88 -90,122 -31,33 -58,59 -82,76 -25,17 -51,30 -79,40 -28,10 -50,16 -66,18 -16,1 -35,2 -57,2 -55,0 -97,-18 -125,-54 -28,-36 -42,-82 -42,-137 0,-52 15,-105 45,-160 31,-54 72,-100 123,-137 52,-36 105,-55 159,-55 40,0 72,8 96,24 23,15 34,39 34,71zm-119 -41c-30,0 -64,21 -102,63 -38,43 -68,92 -88,147 87,-22 149,-65 187,-128 23,-37 28,-63 16,-78 -3,-3 -7,-4 -13,-4zm792 231c-23,36 -42,66 -58,89 -16,24 -33,46 -51,69 -17,22 -34,39 -50,51 -16,12 -34,23 -52,33 -19,10 -39,16 -61,19 -21,3 -45,4 -69,4 -25,0 -54,-1 -87,-5 -4,2 -9,3 -14,5 -6,1 -17,3 -32,4 -16,1 -30,1 -41,-1 -12,-3 -23,-9 -32,-19 -10,-10 -15,-23 -15,-40 0,-19 7,-34 20,-45 14,-11 30,-17 50,-17 14,0 34,7 58,20 39,-36 74,-88 104,-155 30,-68 46,-127 46,-177 0,-35 -11,-52 -33,-52 -23,0 -52,17 -88,51 -35,35 -73,93 -114,175l-260 556c-3,5 -8,8 -14,8l-114 0c-3,0 -5,-1 -6,-3 -2,-3 -2,-5 0,-8l385 -823c3,-5 8,-8 15,-8l113 0c3,0 5,1 7,3 1,3 1,5 1,8l-13 25c39,-31 77,-46 115,-46 43,0 76,15 100,44 24,30 36,68 36,114 0,53 -14,109 -44,170 -29,61 -67,111 -115,150 52,-3 98,-23 138,-62 40,-38 85,-98 137,-178 2,-2 5,-2 7,0 3,3 8,9 15,17 8,8 13,13 15,16 2,3 3,5 1,8zm590 -8c3,3 3,5 1,8 -35,57 -65,102 -91,136 -25,35 -49,60 -70,75 -21,16 -39,26 -54,30 -15,4 -33,6 -53,6 -31,0 -56,-10 -76,-31 -21,-21 -31,-46 -31,-77l0 -3c-54,74 -109,111 -165,111 -40,0 -71,-14 -92,-42 -22,-28 -33,-66 -33,-113 0,-37 8,-76 25,-119 16,-43 38,-83 65,-121 27,-38 61,-69 102,-94 41,-25 82,-37 125,-37 55,0 90,22 105,65 1,-2 4,-9 9,-20 3,-6 7,-8 14,-8l114 0c3,0 5,1 6,3 2,2 2,5 1,8 -67,141 -108,234 -125,278 -16,44 -24,78 -24,101 0,17 6,26 19,26 15,0 39,-19 74,-57 35,-38 74,-91 117,-158 3,-2 5,-2 7,0 14,15 24,26 30,33zm-286 -112c3,-32 0,-58 -10,-77 -9,-20 -23,-30 -40,-30 -29,0 -60,20 -92,59 -32,40 -58,85 -78,137 -20,52 -30,96 -30,133 0,17 3,30 11,40 7,10 15,15 26,15 43,0 99,-59 171,-178 10,-27 24,-60 42,-99zm624 -462c3,0 5,1 7,2 1,2 1,5 0,7l-172 367c56,-45 113,-67 170,-67 32,0 57,8 75,24 18,17 27,38 27,63 0,34 -18,66 -53,96 -36,30 -88,50 -158,61 11,13 19,31 24,55 5,24 8,46 10,65 1,18 6,35 13,50 7,14 18,22 33,22 38,0 100,-68 185,-204 2,-2 4,-2 7,0l30 33c3,3 3,5 0,8 -36,58 -67,103 -93,136 -25,34 -49,58 -70,74 -21,16 -39,27 -54,31 -15,4 -33,6 -56,6 -33,0 -59,-9 -77,-27 -18,-19 -29,-41 -33,-67 -5,-26 -7,-51 -9,-77 -1,-26 -5,-48 -13,-67 -7,-18 -19,-27 -36,-27l-10 0 -121 257c-2,5 -7,8 -12,8l-114 0c-3,0 -5,-1 -7,-3 -1,-3 -1,-5 0,-8l381 -810c3,-6 7,-8 14,-8l112 0zm-38 375c-48,0 -109,42 -185,125l-10 22 29 0c52,-8 97,-25 135,-53 38,-27 56,-50 56,-70 0,-16 -8,-24 -25,-24z"></path>
  </g>
 </g>
</svg>